<?xml version="1.0" encoding="UTF-8"?>
<svg id="BE_Civil_Engineering" data-name="BE Civil Engineering" xmlns="http://www.w3.org/2000/svg" viewBox="0 0 256 256">
  <path d="M64.32,56.29l-.6.52-.11,11.91c-.13,11.24-.15,11.97-.58,13.5-4.49,16.08-27.41,33.1-44.54,33.1-1.66,0-2.9-.11-3.68-.34-1.96-.56-2.75-.6-3.22-.19-.69.62-.56,1.68.3,2.41,1.16,1.03,3.57,1.44,7.85,1.31l3.46-.11v24.22h-5.05c-5.48,0-6.21.13-6.45,1.14-.06.26-.09,1.78-.06,3.37l.06,2.9,25.99.06c14.29.02,26.03.06,26.05.11.02.02.09,6.41.11,14.17.04,7.78.15,14.42.26,14.79.19.75,1.48,1.72,2.3,1.72.3,0,.84-.19,1.23-.43,1.38-.82,1.31-.17,1.14-15.91-.09-7.87-.11-14.34-.06-14.4.06-.06,26.74-.11,59.28-.11s59.24.04,59.28.11c.06.06.04,6.53-.04,14.4-.17,15.69-.21,15.11,1.12,15.91.88.54,1.53.54,2.45-.02,1.42-.88,1.35-.19,1.35-15.99v-14.29l25.21-.02c13.84-.02,25.54,0,25.97.02.45.02.86-.09.97-.24.09-.15.15-1.63.11-3.31-.06-4.19.45-3.85-6.26-3.93l-5.37-.06v-24.2l3.35.11c4.73.15,7.44-.39,8.34-1.59.52-.71.52-1.48,0-2.04-.45-.52-1.29-.47-3.31.11-.77.24-2.02.34-3.61.34-10.45,0-23.95-6.51-33.81-16.34-6.1-6.06-9.74-12.02-10.94-17.84-.39-1.87-.41-3.01-.43-12.98,0-11.89.02-11.65-1.18-12.21-.64-.28-1.53.21-1.83,1.03-.13.32-.21,4.88-.21,11.03,0,9.93-.02,10.55-.43,11.74-1.87,5.44-6.23,11.52-13.03,18.16-12.34,12.04-28.93,21.19-41.85,23.09-2.99.45-8.68.45-11.61.02-9.33-1.38-20.18-6.26-31.02-13.97-4.02-2.84-7.76-6.02-11.71-9.97-6.43-6.43-10.47-12.17-12.23-17.41-.41-1.25-.43-1.81-.43-11.95v-10.68l-.62-.62c-.77-.75-1.12-.77-1.89-.11ZM63.98,105.68c-.09,8.66-.15,20.46-.15,26.22v10.49h-16.12v-1.57c0-.84.15-7.97.32-15.84.17-7.87.32-15.11.32-16.12l.02-1.83,1.76-1.29c4.21-3.1,7.7-6.41,10.17-9.67,2.02-2.67,2.58-3.57,2.97-4.71.41-1.18.52-1.42.71-1.42.09,0,.06,7.09,0,15.73ZM192.86,91.62c.56,1.4.95,1.98,3.61,5.37,2.17,2.79,7.2,7.35,10.68,9.72l.47.32.32,16.34c.17,8.98.32,16.94.32,17.67v1.35h-16.12v-12.96c0-7.14-.06-18.96-.13-26.29-.11-9.05-.06-13.24.09-13.09.11.11.45.82.75,1.57ZM69.09,91.82c.56.92,1.66,2.49,2.43,3.5,1.48,1.93,7.16,7.67,9.01,9.14,1.01.77,1.1.95,1.23,1.93.06.58.15,8.9.17,18.49l.06,17.41-6.68.06-6.68.04-.13-8.32c-.09-4.6-.19-14.64-.26-22.31-.06-7.7-.17-15.69-.24-17.8-.04-2.09-.06-3.8,0-3.8.04,0,.56.75,1.1,1.66ZM187.83,109.4c-.11,10.53-.26,22.25-.32,26.05l-.13,6.94h-6.62c-6.02,0-6.64-.04-6.71-.37-.04-.19-.02-8.47.04-18.4l.11-18.03,1.61-1.44c4.99-4.39,8.71-8.49,10.86-11.97.69-1.12,1.29-2,1.31-1.96.02.02-.04,8.66-.15,19.17ZM89.55,111.1c3.85,2.51,7.52,4.6,11.69,6.64l3.57,1.74.15,4.97c.06,2.71.13,7.85.15,11.39l.02,6.45-9.16.06-9.16.04v-7.48c0-4.13-.06-11.56-.15-16.55-.06-4.99-.09-9.07,0-9.07.06,0,1.38.82,2.88,1.81ZM169.3,121.05c-.09,6.49-.15,13.93-.15,16.57v4.77l-9.16-.04-9.18-.06.04-3.44c0-1.89.09-7.03.15-11.41l.15-7.97,3.05-1.44c3.87-1.85,8.25-4.32,11.93-6.77,1.59-1.05,2.99-1.93,3.1-1.93.13-.02.15,4.69.06,11.74ZM43.92,126.21c-.09,8.86-.17,16.12-.21,16.14-.02.04-3.57.11-7.87.11l-7.8.04-.06-12.7-.04-12.7,1.33-.37c2.94-.8,9.11-3.57,12.96-5.8.71-.41,1.42-.75,1.57-.75.24-.02.26,2.92.13,16.04ZM214.05,111.1c3.8,2.19,10.3,5.05,12.98,5.72l1.01.26v25.6l-7.87-.13c-4.32-.06-7.89-.15-7.93-.19-.17-.17-.19-32.2-.02-32.2.11,0,.92.43,1.83.95ZM111.33,122c3.65,1.29,7.95,2.32,11.63,2.77l2.06.26.13,3.37c.09,1.85.15,5.7.15,8.53v5.18l-7.72.17c-4.26.09-7.82.09-7.95,0-.17-.09-.24-3.37-.24-10.58,0-9.84.02-10.43.39-10.27.19.09.9.34,1.55.56ZM146.58,131.73c0,7.18-.06,10.47-.24,10.55-.13.09-3.7.09-7.95,0l-7.72-.17v-3.89c0-2.13.06-6,.15-8.56l.13-4.64,1.31-.15c3.74-.39,9.18-1.68,12.6-2.97.77-.3,1.46-.54,1.57-.56.09,0,.15,4.66.15,10.38Z"/>
  <path d="M122.18,182.81c-3.22.52-4.11.75-6.99,1.89-2.69,1.07-3.83,1.72-6.36,3.63-.9.69-2.34,1.74-3.18,2.34-.84.62-2.19,1.7-3.03,2.43-2.73,2.39-5.01,3.14-9.35,3.12-3.18-.02-6.06-.47-8.1-1.29-2.79-1.12-6-2.92-8.34-4.73-2.94-2.26-5.87-3.74-9.14-4.62-2.34-.62-2.64-.64-5.48-.56-3.53.11-4.32.32-7.2,1.93-3.68,2.06-4.13,2.32-6.79,4.13-3.48,2.36-4.17,2.75-6.58,3.74-3.31,1.33-6.17,2.02-8.66,2.04-2.41.02-6.38-.62-8.21-1.35-3.59-1.42-8.71-4.71-10.04-6.47-1.5-1.98-2.64-2.45-3.57-1.46-.77.84-.56,1.5,1.12,3.42,1.18,1.35,2.19,2.17,4.34,3.61,3.12,2.06,7.01,3.98,9.03,4.43,5.09,1.14,6.62,1.31,8.94.97,4.92-.71,9.97-2.73,14.53-5.8,2.97-2,3.87-2.56,7.39-4.54,3.48-1.96,6.32-2.19,10.75-.95,3.29.95,4.86,1.78,8.4,4.45,2.13,1.61,3.44,2.41,5.63,3.42,3.76,1.74,4.13,1.87,7.14,2.36,2.09.37,3.18.43,5.8.34,1.78-.06,3.7-.26,4.3-.43,1.96-.54,4.36-1.89,6.06-3.37.92-.77,2.32-1.91,3.12-2.49s2.39-1.74,3.55-2.6c3.37-2.47,7.44-4.02,11.99-4.6,2.73-.32,9.52-.13,11.71.34,2.26.49,4.49,1.27,6.53,2.26,1.81.88,6.1,3.96,9.52,6.84,3.68,3.05,5.91,3.91,10.7,4.06,3.78.11,7.5-.39,9.93-1.35,2.97-1.18,6.23-2.84,7.37-3.76,4.08-3.31,6.1-4.43,9.67-5.46,3.05-.86,5.35-.99,7.61-.41,1.44.37,6.08,2.82,8.3,4.36,5.89,4.17,9.5,5.83,15.24,7.03,2.86.58,4.3.64,6.02.21.67-.17,1.98-.43,2.92-.56,4.49-.67,11.52-4.6,14.9-8.34,1.7-1.89,1.93-2.67,1.12-3.48-.92-.92-2.13-.43-3.55,1.5-1.25,1.7-6.38,5.01-10.06,6.49-1.76.71-5.76,1.35-8.21,1.33-3.91-.04-9.14-1.81-13.37-4.54-1.4-.9-2.88-1.91-3.29-2.21-1.16-.92-7.29-4.28-8.49-4.66-.71-.24-2.11-.39-4.08-.43-2.84-.09-3.14-.06-5.48.58-2.6.71-4.56,1.5-6.34,2.64-1.33.82-4.11,2.86-4.84,3.5-.54.49-3.12,1.83-5.91,3.05-1.98.86-5.31,1.42-8.6,1.42-4.39,0-6.53-.77-9.8-3.57-1.74-1.46-5.83-4.54-8.17-6.13-.56-.39-1.48-.88-2.06-1.12-.56-.21-1.78-.71-2.71-1.07-4.51-1.78-11.97-2.43-17.67-1.53Z"/>
</svg>